<svg xmlns="http://www.w3.org/2000/svg" viewBox="0 0 32 32">
  <rect width="32" height="32" rx="6" fill="url(#gradient)"/>
  <path d="M16 8c-4.4 0-8 3.6-8 8s3.6 8 8 8 8-3.6 8-8-3.6-8-8-8zm0 12c-2.2 0-4-1.8-4-4s1.8-4 4-4 4 1.8 4 4-1.8 4-4 4z" fill="white" opacity="0.9"/>
  <circle cx="16" cy="16" r="2" fill="white"/>
  <path d="M16 4v4M16 20v4M4 16h4M20 16h4" stroke="white" stroke-width="2" stroke-linecap="round" opacity="0.6"/>
  <defs>
    <linearGradient id="gradient" x1="0%" y1="0%" x2="100%" y2="100%">
      <stop offset="0%" style="stop-color:#6366f1"/>
      <stop offset="100%" style="stop-color:#818cf8"/>
    </linearGradient>
  </defs>
</svg>
